<svg xmlns="http://www.w3.org/2000/svg" viewBox="0 0 960 1098" width="960" height="1098">
<rect width="100%" height="100%" fill="#f4f1ea"/>
<g>
<path d="M 359.4,1068.0 L 30.0,1068.0 L 30.0,390.9 L 83.3,398.9 L 116.8,412.0 L 167.2,435.4 L 206.3,461.7 L 162.1,559.4 L 168.7,596.1 L 194.9,702.2 L 230.8,779.8 L 286.8,789.0 L 286.2,831.1 L 307.6,839.2 L 343.4,859.5 L 341.3,897.4 L 339.6,953.8 L 345.1,1002.3 L 359.4,1068.0 Z" fill="#7fa5c4" stroke="#5a5344" stroke-width="0.6" fill-rule="evenodd"/>
<path d="M 746.9,1068.0 L 359.4,1068.0 L 345.1,1002.3 L 339.6,953.8 L 341.3,897.4 L 343.4,859.5 L 383.9,811.9 L 436.8,786.2 L 458.8,815.8 L 492.3,870.7 L 563.9,939.2 L 687.1,924.5 L 746.9,1068.0 Z" fill="#7fa5c4" stroke="#5a5344" stroke-width="0.6" fill-rule="evenodd"/>
<path d="M 929.2,1040.1 L 928.9,1068.0 L 746.9,1068.0 L 687.1,924.5 L 649.2,836.9 L 786.3,806.6 L 929.2,1040.1 Z" fill="#7fa5c4" stroke="#5a5344" stroke-width="0.6" fill-rule="evenodd"/>
<path d="M 930.0,980.6 L 929.2,1040.1 L 786.3,806.6 L 814.8,785.0 L 930.0,980.6 Z" fill="#a69c87" stroke="#5a5344" stroke-width="0.6" fill-rule="evenodd"/>
<path d="M 928.9,757.3 L 930.0,980.6 L 814.8,785.0 L 841.0,773.9 L 877.7,765.9 L 902.4,762.4 L 928.9,757.3 Z" fill="#8f836b" stroke="#5a5344" stroke-width="0.6" fill-rule="evenodd"/>
<path d="M 889.0,30.0 L 928.9,31.6 L 928.9,757.3 L 868.3,629.8 L 859.4,572.7 L 882.8,536.9 L 805.0,476.3 L 821.1,454.8 L 894.3,371.3 L 832.0,316.6 L 774.6,266.6 L 823.5,216.2 L 862.5,145.7 L 883.9,82.8 L 889.0,30.0 Z" fill="#7fa5c4" stroke="#5a5344" stroke-width="0.6" fill-rule="evenodd"/>
<path d="M 851.2,31.3 L 889.0,30.0 L 883.9,82.8 L 862.5,145.7 L 823.5,216.2 L 774.6,266.6 L 743.5,242.1 L 790.8,196.5 L 827.1,133.1 L 846.7,77.3 L 851.2,31.3 Z" fill="#9e937d" stroke="#5a5344" stroke-width="0.6" fill-rule="evenodd"/>
<path d="M 688.1,31.6 L 851.2,31.3 L 846.7,77.3 L 827.1,133.1 L 790.8,196.5 L 743.5,242.1 L 684.6,195.8 L 624.7,150.4 L 688.1,31.6 Z" fill="#7fa5c4" stroke="#5a5344" stroke-width="0.6" fill-rule="evenodd"/>
<path d="M 30.0,390.9 L 30.0,31.6 L 688.1,31.6 L 624.7,150.4 L 618.3,161.6 L 575.0,163.1 L 451.5,252.7 L 381.8,210.9 L 330.8,181.7 L 288.2,181.0 L 270.5,262.8 L 266.9,270.9 L 167.2,435.4 L 116.8,412.0 L 83.3,398.9 L 30.0,390.9 Z" fill="#7fa5c4" stroke="#5a5344" stroke-width="0.6" fill-rule="evenodd"/>
<path d="M 618.3,161.6 L 624.7,150.4 L 684.6,195.8 L 605.9,297.0 L 593.3,288.7 L 565.9,276.1 L 573.5,250.5 L 618.3,161.6 Z" fill="#a79d88" stroke="#5a5344" stroke-width="0.6" fill-rule="evenodd"/>
<path d="M 618.3,161.6 L 573.5,250.5 L 565.9,276.1 L 549.3,324.8 L 541.6,321.7 L 495.9,287.6 L 478.8,273.9 L 451.5,252.7 L 575.0,163.1 L 618.3,161.6 Z" fill="#91856d" stroke="#5a5344" stroke-width="0.6" fill-rule="evenodd"/>
<path d="M 549.3,324.8 L 565.9,276.1 L 593.3,288.7 L 605.9,297.0 L 623.1,312.8 L 639.4,334.3 L 630.0,353.6 L 593.5,341.2 L 549.3,324.8 Z" fill="#c3bbaa" stroke="#5a5344" stroke-width="0.6" fill-rule="evenodd"/>
<path d="M 549.3,324.8 L 533.8,388.7 L 519.1,448.9 L 487.4,460.3 L 459.5,405.1 L 491.6,387.9 L 541.6,321.7 L 549.3,324.8 Z" fill="#bab19e" stroke="#5a5344" stroke-width="0.6" fill-rule="evenodd"/>
<path d="M 533.8,388.7 L 549.3,324.8 L 593.5,341.2 L 584.5,388.7 L 533.8,388.7 Z" fill="#c9c1b1" stroke="#5a5344" stroke-width="0.6" fill-rule="evenodd"/>
<path d="M 519.1,448.9 L 533.8,388.7 L 584.5,388.7 L 619.9,391.2 L 617.5,445.0 L 590.4,484.2 L 519.1,448.9 Z" fill="#aea490" stroke="#5a5344" stroke-width="0.6" fill-rule="evenodd"/>
<path d="M 519.1,448.9 L 503.0,552.5 L 475.6,466.1 L 487.4,460.3 L 519.1,448.9 Z" fill="#cdc5b5" stroke="#5a5344" stroke-width="0.6" fill-rule="evenodd"/>
<path d="M 503.0,552.5 L 519.1,448.9 L 590.4,484.2 L 578.8,513.6 L 558.7,510.3 L 503.0,552.5 Z" fill="#bfb6a5" stroke="#5a5344" stroke-width="0.6" fill-rule="evenodd"/>
<path d="M 503.0,552.5 L 500.5,611.1 L 498.9,625.6 L 465.5,624.3 L 463.7,553.6 L 503.0,552.5 Z" fill="#cac2b1" stroke="#5a5344" stroke-width="0.6" fill-rule="evenodd"/>
<path d="M 500.5,611.1 L 503.0,552.5 L 558.7,510.3 L 578.8,513.6 L 580.4,539.1 L 587.2,556.9 L 595.6,577.5 L 577.6,582.6 L 537.0,598.7 L 500.5,611.1 Z" fill="#b6ad9a" stroke="#5a5344" stroke-width="0.6" fill-rule="evenodd"/>
<path d="M 498.9,625.6 L 500.5,611.1 L 537.0,598.7 L 543.1,647.7 L 497.1,641.6 L 498.9,625.6 Z" fill="#d0c8b9" stroke="#5a5344" stroke-width="0.6" fill-rule="evenodd"/>
<path d="M 498.9,625.6 L 497.1,641.6 L 495.3,658.6 L 494.7,661.8 L 430.6,657.0 L 431.2,623.0 L 465.5,624.3 L 498.9,625.6 Z" fill="#cbc4b4" stroke="#5a5344" stroke-width="0.6" fill-rule="evenodd"/>
<path d="M 494.7,661.8 L 495.3,658.6 L 497.1,641.6 L 543.1,647.7 L 562.7,650.1 L 600.7,632.1 L 611.6,654.3 L 582.9,663.0 L 564.9,693.5 L 547.2,684.1 L 494.7,661.8 Z" fill="#c5bdac" stroke="#5a5344" stroke-width="0.6" fill-rule="evenodd"/>
<path d="M 494.7,661.8 L 481.7,733.3 L 472.8,752.4 L 436.8,786.2 L 375.4,713.5 L 423.4,665.9 L 430.6,657.0 L 494.7,661.8 Z" fill="#a19680" stroke="#5a5344" stroke-width="0.6" fill-rule="evenodd"/>
<path d="M 481.7,733.3 L 494.7,661.8 L 547.2,684.1 L 527.4,716.9 L 550.3,751.6 L 525.6,767.6 L 508.5,742.4 L 481.7,733.3 Z" fill="#c1b8a7" stroke="#5a5344" stroke-width="0.6" fill-rule="evenodd"/>
<path d="M 436.8,786.2 L 472.8,752.4 L 481.7,733.3 L 508.5,742.4 L 525.6,767.6 L 458.8,815.8 L 436.8,786.2 Z" fill="#c4bcab" stroke="#5a5344" stroke-width="0.6" fill-rule="evenodd"/>
<path d="M 436.8,786.2 L 383.9,811.9 L 353.1,732.4 L 307.6,839.2 L 286.2,831.1 L 286.8,789.0 L 230.8,779.8 L 194.9,702.2 L 225.9,685.3 L 261.7,658.7 L 292.4,627.2 L 375.4,713.5 L 436.8,786.2 Z" fill="#7fa5c4" stroke="#5a5344" stroke-width="0.6" fill-rule="evenodd"/>
<path d="M 383.9,811.9 L 343.4,859.5 L 307.6,839.2 L 353.1,732.4 L 383.9,811.9 Z" fill="#bdb4a2" stroke="#5a5344" stroke-width="0.6" fill-rule="evenodd"/>
<path d="M 547.2,684.1 L 564.9,693.5 L 591.6,723.9 L 550.3,751.6 L 527.4,716.9 L 547.2,684.1 Z" fill="#ccc4b4" stroke="#5a5344" stroke-width="0.6" fill-rule="evenodd"/>
<path d="M 591.6,723.9 L 564.9,693.5 L 582.9,663.0 L 611.6,654.3 L 639.0,709.9 L 602.6,735.0 L 591.6,723.9 Z" fill="#c5bcac" stroke="#5a5344" stroke-width="0.6" fill-rule="evenodd"/>
<path d="M 591.6,723.9 L 602.6,735.0 L 617.9,755.4 L 634.1,801.1 L 492.3,870.7 L 458.8,815.8 L 525.6,767.6 L 550.3,751.6 L 591.6,723.9 Z" fill="#8f836b" stroke="#5a5344" stroke-width="0.6" fill-rule="evenodd"/>
<path d="M 634.1,801.1 L 617.9,755.4 L 602.6,735.0 L 639.0,709.9 L 705.6,673.4 L 786.3,806.6 L 649.2,836.9 L 634.1,801.1 Z" fill="#8f836b" stroke="#5a5344" stroke-width="0.6" fill-rule="evenodd"/>
<path d="M 634.1,801.1 L 649.2,836.9 L 687.1,924.5 L 563.9,939.2 L 492.3,870.7 L 634.1,801.1 Z" fill="#8f836b" stroke="#5a5344" stroke-width="0.6" fill-rule="evenodd"/>
<path d="M 423.4,665.9 L 375.4,713.5 L 292.4,627.2 L 320.2,585.8 L 385.1,623.0 L 423.4,665.9 Z" fill="#a99f8a" stroke="#5a5344" stroke-width="0.6" fill-rule="evenodd"/>
<path d="M 430.6,657.0 L 423.4,665.9 L 385.1,623.0 L 403.5,551.9 L 428.2,552.4 L 431.2,623.0 L 430.6,657.0 Z" fill="#c4bbaa" stroke="#5a5344" stroke-width="0.6" fill-rule="evenodd"/>
<path d="M 320.2,585.8 L 292.4,627.2 L 261.7,658.7 L 225.9,685.3 L 194.9,702.2 L 168.7,596.1 L 190.6,590.3 L 214.4,580.7 L 237.0,568.8 L 261.6,550.8 L 274.3,538.5 L 291.6,558.8 L 320.2,585.8 Z" fill="#8f836b" stroke="#5a5344" stroke-width="0.6" fill-rule="evenodd"/>
<path d="M 385.1,623.0 L 320.2,585.8 L 291.6,558.8 L 314.6,499.2 L 324.8,470.0 L 357.1,478.4 L 405.2,493.9 L 403.5,551.9 L 385.1,623.0 Z" fill="#938870" stroke="#5a5344" stroke-width="0.6" fill-rule="evenodd"/>
<path d="M 431.2,623.0 L 428.2,552.4 L 435.9,552.5 L 463.7,553.6 L 465.5,624.3 L 431.2,623.0 Z" fill="#cbc3b3" stroke="#5a5344" stroke-width="0.6" fill-rule="evenodd"/>
<path d="M 428.2,552.4 L 403.5,551.9 L 405.2,493.9 L 357.1,478.4 L 362.0,451.9 L 407.5,460.1 L 437.3,486.7 L 434.8,490.3 L 435.9,552.5 L 428.2,552.4 Z" fill="#c2b9a8" stroke="#5a5344" stroke-width="0.6" fill-rule="evenodd"/>
<path d="M 274.3,538.5 L 261.6,550.8 L 237.0,568.8 L 214.4,580.7 L 190.6,590.3 L 168.7,596.1 L 162.1,559.4 L 206.3,461.7 L 274.3,538.5 Z" fill="#aa9f8b" stroke="#5a5344" stroke-width="0.6" fill-rule="evenodd"/>
<path d="M 291.6,558.8 L 274.3,538.5 L 206.3,461.7 L 167.2,435.4 L 256.3,419.3 L 260.0,438.9 L 277.3,473.9 L 314.6,499.2 L 291.6,558.8 Z" fill="#aca28e" stroke="#5a5344" stroke-width="0.6" fill-rule="evenodd"/>
<path d="M 314.6,499.2 L 277.3,473.9 L 260.0,438.9 L 256.3,419.3 L 305.4,407.2 L 324.8,470.0 L 314.6,499.2 Z" fill="#c3baa9" stroke="#5a5344" stroke-width="0.6" fill-rule="evenodd"/>
<path d="M 256.3,419.3 L 167.2,435.4 L 266.9,270.9 L 336.6,301.3 L 333.0,328.5 L 333.4,341.6 L 334.0,359.0 L 337.6,374.4 L 342.7,393.3 L 305.4,407.2 L 256.3,419.3 Z" fill="#8f836b" stroke="#5a5344" stroke-width="0.6" fill-rule="evenodd"/>
<path d="M 305.4,407.2 L 342.7,393.3 L 360.3,387.5 L 373.2,392.3 L 362.0,451.9 L 357.1,478.4 L 324.8,470.0 L 305.4,407.2 Z" fill="#c1b9a7" stroke="#5a5344" stroke-width="0.6" fill-rule="evenodd"/>
<path d="M 373.2,392.3 L 360.3,387.5 L 342.7,393.3 L 337.6,374.4 L 389.0,359.9 L 414.7,351.7 L 427.1,345.3 L 459.5,405.1 L 487.4,460.3 L 475.6,466.1 L 463.2,455.1 L 440.3,435.7 L 408.1,402.9 L 373.2,392.3 Z" fill="#b5ab98" stroke="#5a5344" stroke-width="0.6" fill-rule="evenodd"/>
<path d="M 373.2,392.3 L 408.1,402.9 L 440.3,435.7 L 463.2,455.1 L 475.6,466.1 L 503.0,552.5 L 463.7,553.6 L 435.9,552.5 L 434.8,490.3 L 437.3,486.7 L 407.5,460.1 L 362.0,451.9 L 373.2,392.3 Z" fill="#a09680" stroke="#5a5344" stroke-width="0.6" fill-rule="evenodd"/>
<path d="M 337.6,374.4 L 334.0,359.0 L 333.4,341.6 L 359.5,339.3 L 394.1,333.3 L 425.5,320.6 L 453.4,301.2 L 478.8,273.9 L 495.9,287.6 L 469.3,315.8 L 455.0,325.3 L 427.1,345.3 L 414.7,351.7 L 389.0,359.9 L 337.6,374.4 Z" fill="#c0b7a5" stroke="#5a5344" stroke-width="0.6" fill-rule="evenodd"/>
<path d="M 333.4,341.6 L 333.0,328.5 L 336.6,301.3 L 342.5,279.4 L 356.9,252.2 L 381.8,210.9 L 451.5,252.7 L 478.8,273.9 L 453.4,301.2 L 425.5,320.6 L 394.1,333.3 L 359.5,339.3 L 333.4,341.6 Z" fill="#968a73" stroke="#5a5344" stroke-width="0.6" fill-rule="evenodd"/>
<path d="M 381.8,210.9 L 356.9,252.2 L 342.5,279.4 L 336.6,301.3 L 266.9,270.9 L 270.5,262.8 L 288.2,181.0 L 330.8,181.7 L 381.8,210.9 Z" fill="#a59a85" stroke="#5a5344" stroke-width="0.6" fill-rule="evenodd"/>
<path d="M 427.1,345.3 L 455.0,325.3 L 469.3,315.8 L 495.9,287.6 L 541.6,321.7 L 491.6,387.9 L 459.5,405.1 L 427.1,345.3 Z" fill="#b0a793" stroke="#5a5344" stroke-width="0.6" fill-rule="evenodd"/>
<path d="M 605.9,297.0 L 684.6,195.8 L 743.5,242.1 L 679.1,302.3 L 639.4,334.3 L 623.1,312.8 L 605.9,297.0 Z" fill="#a69c87" stroke="#5a5344" stroke-width="0.6" fill-rule="evenodd"/>
<path d="M 679.1,302.3 L 743.5,242.1 L 774.6,266.6 L 728.6,312.1 L 706.0,332.3 L 679.1,302.3 Z" fill="#c3bbaa" stroke="#5a5344" stroke-width="0.6" fill-rule="evenodd"/>
<path d="M 639.4,334.3 L 679.1,302.3 L 706.0,332.3 L 669.9,360.9 L 639.4,334.3 Z" fill="#cec6b7" stroke="#5a5344" stroke-width="0.6" fill-rule="evenodd"/>
<path d="M 593.5,341.2 L 630.0,353.6 L 619.9,391.2 L 584.5,388.7 L 593.5,341.2 Z" fill="#d0c8b9" stroke="#5a5344" stroke-width="0.6" fill-rule="evenodd"/>
<path d="M 630.0,353.6 L 639.4,334.3 L 669.9,360.9 L 666.7,371.8 L 661.2,386.6 L 660.0,403.5 L 656.9,455.0 L 651.2,468.1 L 618.7,520.2 L 632.1,552.2 L 651.6,558.0 L 671.6,563.2 L 691.9,576.0 L 712.6,592.2 L 720.9,606.4 L 683.0,621.9 L 654.4,600.2 L 595.6,577.5 L 587.2,556.9 L 580.4,539.1 L 578.8,513.6 L 590.4,484.2 L 617.5,445.0 L 619.9,391.2 L 630.0,353.6 Z" fill="#8f836b" stroke="#5a5344" stroke-width="0.6" fill-rule="evenodd"/>
<path d="M 577.6,582.6 L 595.6,577.5 L 654.4,600.2 L 683.0,621.9 L 611.6,654.3 L 600.7,632.1 L 577.6,582.6 Z" fill="#c1b8a7" stroke="#5a5344" stroke-width="0.6" fill-rule="evenodd"/>
<path d="M 537.0,598.7 L 577.6,582.6 L 600.7,632.1 L 562.7,650.1 L 543.1,647.7 L 537.0,598.7 Z" fill="#c8c0b0" stroke="#5a5344" stroke-width="0.6" fill-rule="evenodd"/>
<path d="M 786.3,806.6 L 705.6,673.4 L 683.0,621.9 L 720.9,606.4 L 737.6,646.2 L 755.4,672.9 L 782.5,729.7 L 814.8,785.0 L 786.3,806.6 Z" fill="#a89e89" stroke="#5a5344" stroke-width="0.6" fill-rule="evenodd"/>
<path d="M 705.6,673.4 L 639.0,709.9 L 611.6,654.3 L 683.0,621.9 L 705.6,673.4 Z" fill="#beb5a3" stroke="#5a5344" stroke-width="0.6" fill-rule="evenodd"/>
<path d="M 706.0,332.3 L 728.6,312.1 L 794.8,368.8 L 765.2,414.4 L 749.8,406.2 L 737.9,399.1 L 715.1,389.4 L 691.9,379.9 L 666.7,371.8 L 669.9,360.9 L 706.0,332.3 Z" fill="#b1a894" stroke="#5a5344" stroke-width="0.6" fill-rule="evenodd"/>
<path d="M 728.6,312.1 L 774.6,266.6 L 832.0,316.6 L 794.8,368.8 L 728.6,312.1 Z" fill="#bab09e" stroke="#5a5344" stroke-width="0.6" fill-rule="evenodd"/>
<path d="M 832.0,316.6 L 894.3,371.3 L 821.1,454.8 L 765.2,414.4 L 794.8,368.8 L 832.0,316.6 Z" fill="#a49984" stroke="#5a5344" stroke-width="0.6" fill-rule="evenodd"/>
<path d="M 821.1,454.8 L 805.0,476.3 L 765.7,520.1 L 757.6,528.2 L 729.4,512.7 L 699.4,492.8 L 749.8,406.2 L 765.2,414.4 L 821.1,454.8 Z" fill="#aaa08b" stroke="#5a5344" stroke-width="0.6" fill-rule="evenodd"/>
<path d="M 805.0,476.3 L 882.8,536.9 L 859.4,572.7 L 868.3,629.8 L 818.2,642.1 L 776.9,661.6 L 755.4,672.9 L 737.6,646.2 L 720.9,606.4 L 817.2,565.8 L 765.7,520.1 L 805.0,476.3 Z" fill="#8f836b" stroke="#5a5344" stroke-width="0.6" fill-rule="evenodd"/>
<path d="M 818.2,642.1 L 868.3,629.8 L 928.9,757.3 L 902.4,762.4 L 877.7,765.9 L 818.2,642.1 Z" fill="#afa591" stroke="#5a5344" stroke-width="0.6" fill-rule="evenodd"/>
<path d="M 755.4,672.9 L 776.9,661.6 L 818.2,642.1 L 877.7,765.9 L 841.0,773.9 L 814.8,785.0 L 782.5,729.7 L 755.4,672.9 Z" fill="#a39883" stroke="#5a5344" stroke-width="0.6" fill-rule="evenodd"/>
<path d="M 666.7,371.8 L 691.9,379.9 L 715.1,389.4 L 737.9,399.1 L 749.8,406.2 L 699.4,492.8 L 682.1,485.2 L 651.2,468.1 L 656.9,455.0 L 660.0,403.5 L 661.2,386.6 L 666.7,371.8 Z" fill="#aea490" stroke="#5a5344" stroke-width="0.6" fill-rule="evenodd"/>
<path d="M 720.9,606.4 L 712.6,592.2 L 691.9,576.0 L 729.4,512.7 L 757.6,528.2 L 765.7,520.1 L 817.2,565.8 L 720.9,606.4 Z" fill="#b4aa97" stroke="#5a5344" stroke-width="0.6" fill-rule="evenodd"/>
<path d="M 691.9,576.0 L 671.6,563.2 L 651.6,558.0 L 682.1,485.2 L 699.4,492.8 L 729.4,512.7 L 691.9,576.0 Z" fill="#c3baa9" stroke="#5a5344" stroke-width="0.6" fill-rule="evenodd"/>
<path d="M 651.6,558.0 L 632.1,552.2 L 618.7,520.2 L 651.2,468.1 L 682.1,485.2 L 651.6,558.0 Z" fill="#c6beae" stroke="#5a5344" stroke-width="0.6" fill-rule="evenodd"/>
<path d="M 688.1,31.6 L 624.7,150.4" fill="none" stroke="#c9553f" stroke-width="2.2" stroke-opacity="0.85" stroke-linecap="round"/>
<path d="M 624.7,150.4 L 618.3,161.6" fill="none" stroke="#c9553f" stroke-width="2.2" stroke-opacity="0.85" stroke-linecap="round"/>
<path d="M 618.3,161.6 L 573.5,250.5 L 565.9,276.1" fill="none" stroke="#c9553f" stroke-width="2.2" stroke-opacity="0.85" stroke-linecap="round"/>
<path d="M 565.9,276.1 L 549.3,324.8" fill="none" stroke="#c9553f" stroke-width="2.2" stroke-opacity="0.85" stroke-linecap="round"/>
<path d="M 549.3,324.8 L 533.8,388.7" fill="none" stroke="#c9553f" stroke-width="2.2" stroke-opacity="0.85" stroke-linecap="round"/>
<path d="M 533.8,388.7 L 519.1,448.9" fill="none" stroke="#c9553f" stroke-width="2.2" stroke-opacity="0.85" stroke-linecap="round"/>
<path d="M 519.1,448.9 L 503.0,552.5" fill="none" stroke="#c9553f" stroke-width="2.2" stroke-opacity="0.85" stroke-linecap="round"/>
<path d="M 503.0,552.5 L 500.5,611.1" fill="none" stroke="#c9553f" stroke-width="2.2" stroke-opacity="0.85" stroke-linecap="round"/>
<path d="M 500.5,611.1 L 498.9,625.6" fill="none" stroke="#c9553f" stroke-width="2.2" stroke-opacity="0.85" stroke-linecap="round"/>
<path d="M 498.9,625.6 L 497.1,641.6" fill="none" stroke="#c9553f" stroke-width="2.2" stroke-opacity="0.85" stroke-linecap="round"/>
<path d="M 497.1,641.6 L 495.3,658.6 L 494.7,661.8" fill="none" stroke="#c9553f" stroke-width="2.2" stroke-opacity="0.85" stroke-linecap="round"/>
<path d="M 494.7,661.8 L 481.7,733.3" fill="none" stroke="#c9553f" stroke-width="2.2" stroke-opacity="0.85" stroke-linecap="round"/>
<path d="M 481.7,733.3 L 472.8,752.4 L 436.8,786.2" fill="none" stroke="#c9553f" stroke-width="2.2" stroke-opacity="0.85" stroke-linecap="round"/>
<path d="M 436.8,786.2 L 383.9,811.9" fill="none" stroke="#c9553f" stroke-width="2.2" stroke-opacity="0.85" stroke-linecap="round"/>
<path d="M 383.9,811.9 L 343.4,859.5" fill="none" stroke="#c9553f" stroke-width="2.2" stroke-opacity="0.85" stroke-linecap="round"/>
<path d="M 343.4,859.5 L 341.3,897.4 L 339.6,953.8 L 345.1,1002.3 L 359.4,1068.0" fill="none" stroke="#c9553f" stroke-width="2.2" stroke-opacity="0.85" stroke-linecap="round"/>
<path d="M 494.7,661.8 L 547.2,684.1" fill="none" stroke="#c9553f" stroke-width="2.2" stroke-opacity="0.85" stroke-linecap="round"/>
<path d="M 547.2,684.1 L 564.9,693.5" fill="none" stroke="#c9553f" stroke-width="2.2" stroke-opacity="0.85" stroke-linecap="round"/>
<path d="M 564.9,693.5 L 591.6,723.9" fill="none" stroke="#c9553f" stroke-width="2.2" stroke-opacity="0.85" stroke-linecap="round"/>
<path d="M 591.6,723.9 L 602.6,735.0" fill="none" stroke="#c9553f" stroke-width="2.2" stroke-opacity="0.85" stroke-linecap="round"/>
<path d="M 602.6,735.0 L 617.9,755.4 L 634.1,801.1" fill="none" stroke="#c9553f" stroke-width="2.2" stroke-opacity="0.85" stroke-linecap="round"/>
<path d="M 634.1,801.1 L 649.2,836.9" fill="none" stroke="#c9553f" stroke-width="2.2" stroke-opacity="0.85" stroke-linecap="round"/>
<path d="M 649.2,836.9 L 687.1,924.5" fill="none" stroke="#c9553f" stroke-width="2.2" stroke-opacity="0.85" stroke-linecap="round"/>
<path d="M 687.1,924.5 L 747.0,1068.1" fill="none" stroke="#c9553f" stroke-width="2.2" stroke-opacity="0.85" stroke-linecap="round"/>
<path d="M 547.2,684.1 L 527.4,716.9 L 550.3,751.6" fill="none" stroke="#3a3630" stroke-width="0.9" stroke-opacity="0.85" stroke-linecap="round"/>
<path d="M 550.3,751.6 L 591.6,723.9" fill="none" stroke="#3a3630" stroke-width="0.9" stroke-opacity="0.85" stroke-linecap="round"/>
<path d="M 481.7,733.3 L 508.5,742.4 L 525.6,767.6" fill="none" stroke="#3a3630" stroke-width="0.9" stroke-opacity="0.85" stroke-linecap="round"/>
<path d="M 525.6,767.6 L 550.3,751.6" fill="none" stroke="#3a3630" stroke-width="0.9" stroke-opacity="0.85" stroke-linecap="round"/>
<path d="M 525.6,767.6 L 458.8,815.8" fill="none" stroke="#3a3630" stroke-width="0.9" stroke-opacity="0.85" stroke-linecap="round"/>
<path d="M 458.8,815.8 L 436.8,786.2" fill="none" stroke="#3a3630" stroke-width="0.9" stroke-opacity="0.85" stroke-linecap="round"/>
<path d="M 436.8,786.2 L 375.4,713.5" fill="none" stroke="#3a3630" stroke-width="0.9" stroke-opacity="0.85" stroke-linecap="round"/>
<path d="M 375.4,713.5 L 423.4,665.9" fill="none" stroke="#3a3630" stroke-width="0.9" stroke-opacity="0.85" stroke-linecap="round"/>
<path d="M 423.4,665.9 L 430.6,657.0" fill="none" stroke="#3a3630" stroke-width="0.9" stroke-opacity="0.85" stroke-linecap="round"/>
<path d="M 430.6,657.0 L 494.7,661.8" fill="none" stroke="#3a3630" stroke-width="0.9" stroke-opacity="0.85" stroke-linecap="round"/>
<path d="M 375.4,713.5 L 292.4,627.2" fill="none" stroke="#3a3630" stroke-width="0.9" stroke-opacity="0.85" stroke-linecap="round"/>
<path d="M 292.4,627.2 L 320.2,585.8" fill="none" stroke="#3a3630" stroke-width="0.9" stroke-opacity="0.85" stroke-linecap="round"/>
<path d="M 320.2,585.8 L 385.1,623.0" fill="none" stroke="#3a3630" stroke-width="0.9" stroke-opacity="0.85" stroke-linecap="round"/>
<path d="M 385.1,623.0 L 423.4,665.9" fill="none" stroke="#3a3630" stroke-width="0.9" stroke-opacity="0.85" stroke-linecap="round"/>
<path d="M 430.6,657.0 L 431.2,623.0" fill="none" stroke="#3a3630" stroke-width="0.9" stroke-opacity="0.85" stroke-linecap="round"/>
<path d="M 431.2,623.0 L 428.2,552.4" fill="none" stroke="#3a3630" stroke-width="0.9" stroke-opacity="0.85" stroke-linecap="round"/>
<path d="M 428.2,552.4 L 403.5,551.9" fill="none" stroke="#3a3630" stroke-width="0.9" stroke-opacity="0.85" stroke-linecap="round"/>
<path d="M 403.5,551.9 L 385.1,623.0" fill="none" stroke="#3a3630" stroke-width="0.9" stroke-opacity="0.85" stroke-linecap="round"/>
<path d="M 194.9,702.2 L 225.9,685.3 L 261.7,658.7 L 292.4,627.2" fill="none" stroke="#3a3630" stroke-width="0.9" stroke-opacity="0.85" stroke-linecap="round"/>
<path d="M 168.7,596.1 L 190.6,590.3 L 214.4,580.7 L 237.0,568.8 L 261.6,550.8 L 274.3,538.5" fill="none" stroke="#3a3630" stroke-width="0.9" stroke-opacity="0.85" stroke-linecap="round"/>
<path d="M 274.3,538.5 L 291.6,558.8" fill="none" stroke="#3a3630" stroke-width="0.9" stroke-opacity="0.85" stroke-linecap="round"/>
<path d="M 291.6,558.8 L 320.2,585.8" fill="none" stroke="#3a3630" stroke-width="0.9" stroke-opacity="0.85" stroke-linecap="round"/>
<path d="M 274.3,538.5 L 206.3,461.7" fill="none" stroke="#3a3630" stroke-width="0.9" stroke-opacity="0.85" stroke-linecap="round"/>
<path d="M 291.6,558.8 L 314.6,499.2" fill="none" stroke="#3a3630" stroke-width="0.9" stroke-opacity="0.85" stroke-linecap="round"/>
<path d="M 314.6,499.2 L 277.3,473.9 L 260.0,438.9 L 256.3,419.3" fill="none" stroke="#3a3630" stroke-width="0.9" stroke-opacity="0.85" stroke-linecap="round"/>
<path d="M 30.0,390.9 L 83.3,398.9 L 116.8,412.0 L 167.2,435.4" fill="none" stroke="#c9553f" stroke-width="2.2" stroke-opacity="0.85" stroke-linecap="round"/>
<path d="M 167.2,435.4 L 256.3,419.3" fill="none" stroke="#c9553f" stroke-width="2.2" stroke-opacity="0.85" stroke-linecap="round"/>
<path d="M 256.3,419.3 L 305.4,407.2" fill="none" stroke="#c9553f" stroke-width="2.2" stroke-opacity="0.85" stroke-linecap="round"/>
<path d="M 305.4,407.2 L 342.7,393.3" fill="none" stroke="#c9553f" stroke-width="2.2" stroke-opacity="0.85" stroke-linecap="round"/>
<path d="M 342.7,393.3 L 360.3,387.5 L 373.2,392.3" fill="none" stroke="#c9553f" stroke-width="2.2" stroke-opacity="0.85" stroke-linecap="round"/>
<path d="M 373.2,392.3 L 408.1,402.9 L 440.3,435.7 L 463.2,455.1 L 475.6,466.1" fill="none" stroke="#c9553f" stroke-width="2.2" stroke-opacity="0.85" stroke-linecap="round"/>
<path d="M 475.6,466.1 L 487.4,460.3" fill="none" stroke="#c9553f" stroke-width="2.2" stroke-opacity="0.85" stroke-linecap="round"/>
<path d="M 487.4,460.3 L 519.1,448.9" fill="none" stroke="#c9553f" stroke-width="2.2" stroke-opacity="0.85" stroke-linecap="round"/>
<path d="M 519.1,448.9 L 590.4,484.2" fill="none" stroke="#c9553f" stroke-width="2.2" stroke-opacity="0.85" stroke-linecap="round"/>
<path d="M 167.2,435.4 L 206.3,461.7" fill="none" stroke="#c9553f" stroke-width="2.2" stroke-opacity="0.85" stroke-linecap="round"/>
<path d="M 305.4,407.2 L 324.8,470.0" fill="none" stroke="#3a3630" stroke-width="0.9" stroke-opacity="0.85" stroke-linecap="round"/>
<path d="M 324.8,470.0 L 314.6,499.2" fill="none" stroke="#3a3630" stroke-width="0.9" stroke-opacity="0.85" stroke-linecap="round"/>
<path d="M 324.8,470.0 L 357.1,478.4" fill="none" stroke="#3a3630" stroke-width="0.9" stroke-opacity="0.85" stroke-linecap="round"/>
<path d="M 357.1,478.4 L 362.0,451.9" fill="none" stroke="#3a3630" stroke-width="0.9" stroke-opacity="0.85" stroke-linecap="round"/>
<path d="M 362.0,451.9 L 373.2,392.3" fill="none" stroke="#3a3630" stroke-width="0.9" stroke-opacity="0.85" stroke-linecap="round"/>
<path d="M 357.1,478.4 L 405.2,493.9 L 403.5,551.9" fill="none" stroke="#3a3630" stroke-width="0.9" stroke-opacity="0.85" stroke-linecap="round"/>
<path d="M 428.2,552.4 L 435.9,552.5" fill="none" stroke="#3a3630" stroke-width="0.9" stroke-opacity="0.85" stroke-linecap="round"/>
<path d="M 435.9,552.5 L 434.8,490.3 L 437.3,486.7 L 407.5,460.1 L 362.0,451.9" fill="none" stroke="#3a3630" stroke-width="0.9" stroke-opacity="0.85" stroke-linecap="round"/>
<path d="M 342.7,393.3 L 337.6,374.4" fill="none" stroke="#3a3630" stroke-width="0.9" stroke-opacity="0.85" stroke-linecap="round"/>
<path d="M 337.6,374.4 L 334.0,359.0 L 333.4,341.6" fill="none" stroke="#3a3630" stroke-width="0.9" stroke-opacity="0.85" stroke-linecap="round"/>
<path d="M 333.4,341.6 L 333.0,328.5 L 336.6,301.3" fill="none" stroke="#3a3630" stroke-width="0.9" stroke-opacity="0.85" stroke-linecap="round"/>
<path d="M 336.6,301.3 L 342.5,279.4 L 356.9,252.2 L 381.8,210.9" fill="none" stroke="#3a3630" stroke-width="0.9" stroke-opacity="0.85" stroke-linecap="round"/>
<path d="M 336.6,301.3 L 266.9,270.9" fill="none" stroke="#3a3630" stroke-width="0.9" stroke-opacity="0.85" stroke-linecap="round"/>
<path d="M 266.9,270.9 L 270.5,262.8 L 288.2,181.0 L 330.8,181.7 L 381.8,210.9" fill="none" stroke="#3a3630" stroke-width="0.9" stroke-opacity="0.85" stroke-linecap="round"/>
<path d="M 266.9,270.9 L 167.2,435.4" fill="none" stroke="#3a3630" stroke-width="0.9" stroke-opacity="0.85" stroke-linecap="round"/>
<path d="M 206.3,461.7 L 162.1,559.4 L 168.7,596.1" fill="none" stroke="#3a3630" stroke-width="0.9" stroke-opacity="0.85" stroke-linecap="round"/>
<path d="M 168.7,596.1 L 194.9,702.2" fill="none" stroke="#3a3630" stroke-width="0.9" stroke-opacity="0.85" stroke-linecap="round"/>
<path d="M 194.9,702.2 L 230.8,779.8 L 286.8,789.0 L 286.2,831.1 L 307.6,839.2" fill="none" stroke="#3a3630" stroke-width="0.9" stroke-opacity="0.85" stroke-linecap="round"/>
<path d="M 307.6,839.2 L 353.1,732.4 L 383.9,811.9" fill="none" stroke="#3a3630" stroke-width="0.9" stroke-opacity="0.85" stroke-linecap="round"/>
<path d="M 343.4,859.5 L 307.6,839.2" fill="none" stroke="#3a3630" stroke-width="0.9" stroke-opacity="0.85" stroke-linecap="round"/>
<path d="M 381.8,210.9 L 451.5,252.7" fill="none" stroke="#3a3630" stroke-width="0.9" stroke-opacity="0.85" stroke-linecap="round"/>
<path d="M 451.5,252.7 L 478.8,273.9" fill="none" stroke="#3a3630" stroke-width="0.9" stroke-opacity="0.85" stroke-linecap="round"/>
<path d="M 478.8,273.9 L 453.4,301.2 L 425.5,320.6 L 394.1,333.3 L 359.5,339.3 L 333.4,341.6" fill="none" stroke="#3a3630" stroke-width="0.9" stroke-opacity="0.85" stroke-linecap="round"/>
<path d="M 337.6,374.4 L 389.0,359.9 L 414.7,351.7 L 427.1,345.3" fill="none" stroke="#3a3630" stroke-width="0.9" stroke-opacity="0.85" stroke-linecap="round"/>
<path d="M 427.1,345.3 L 455.0,325.3 L 469.3,315.8 L 495.9,287.6" fill="none" stroke="#3a3630" stroke-width="0.9" stroke-opacity="0.85" stroke-linecap="round"/>
<path d="M 495.9,287.6 L 478.8,273.9" fill="none" stroke="#3a3630" stroke-width="0.9" stroke-opacity="0.85" stroke-linecap="round"/>
<path d="M 427.1,345.3 L 459.5,405.1" fill="none" stroke="#3a3630" stroke-width="0.9" stroke-opacity="0.85" stroke-linecap="round"/>
<path d="M 459.5,405.1 L 487.4,460.3" fill="none" stroke="#3a3630" stroke-width="0.9" stroke-opacity="0.85" stroke-linecap="round"/>
<path d="M 459.5,405.1 L 491.6,387.9 L 541.6,321.7" fill="none" stroke="#3a3630" stroke-width="0.9" stroke-opacity="0.85" stroke-linecap="round"/>
<path d="M 495.9,287.6 L 541.6,321.7" fill="none" stroke="#3a3630" stroke-width="0.9" stroke-opacity="0.85" stroke-linecap="round"/>
<path d="M 541.6,321.7 L 549.3,324.8" fill="none" stroke="#3a3630" stroke-width="0.9" stroke-opacity="0.85" stroke-linecap="round"/>
<path d="M 618.3,161.6 L 575.0,163.1 L 451.5,252.7" fill="none" stroke="#3a3630" stroke-width="0.9" stroke-opacity="0.85" stroke-linecap="round"/>
<path d="M 624.7,150.4 L 684.6,195.8" fill="none" stroke="#3a3630" stroke-width="0.9" stroke-opacity="0.85" stroke-linecap="round"/>
<path d="M 684.6,195.8 L 605.9,297.0" fill="none" stroke="#3a3630" stroke-width="0.9" stroke-opacity="0.85" stroke-linecap="round"/>
<path d="M 605.9,297.0 L 593.3,288.7 L 565.9,276.1" fill="none" stroke="#3a3630" stroke-width="0.9" stroke-opacity="0.85" stroke-linecap="round"/>
<path d="M 684.6,195.8 L 743.5,242.1" fill="none" stroke="#3a3630" stroke-width="0.9" stroke-opacity="0.85" stroke-linecap="round"/>
<path d="M 743.5,242.1 L 679.1,302.3" fill="none" stroke="#3a3630" stroke-width="0.9" stroke-opacity="0.85" stroke-linecap="round"/>
<path d="M 679.1,302.3 L 639.4,334.3" fill="none" stroke="#3a3630" stroke-width="0.9" stroke-opacity="0.85" stroke-linecap="round"/>
<path d="M 639.4,334.3 L 623.1,312.8 L 605.9,297.0" fill="none" stroke="#3a3630" stroke-width="0.9" stroke-opacity="0.85" stroke-linecap="round"/>
<path d="M 549.3,324.8 L 593.5,341.2" fill="none" stroke="#3a3630" stroke-width="0.9" stroke-opacity="0.85" stroke-linecap="round"/>
<path d="M 593.5,341.2 L 630.0,353.6" fill="none" stroke="#3a3630" stroke-width="0.9" stroke-opacity="0.85" stroke-linecap="round"/>
<path d="M 630.0,353.6 L 639.4,334.3" fill="none" stroke="#3a3630" stroke-width="0.9" stroke-opacity="0.85" stroke-linecap="round"/>
<path d="M 630.0,353.6 L 619.9,391.2" fill="none" stroke="#3a3630" stroke-width="0.9" stroke-opacity="0.85" stroke-linecap="round"/>
<path d="M 619.9,391.2 L 584.5,388.7" fill="none" stroke="#3a3630" stroke-width="0.9" stroke-opacity="0.85" stroke-linecap="round"/>
<path d="M 584.5,388.7 L 593.5,341.2" fill="none" stroke="#3a3630" stroke-width="0.9" stroke-opacity="0.85" stroke-linecap="round"/>
<path d="M 533.8,388.7 L 584.5,388.7" fill="none" stroke="#3a3630" stroke-width="0.9" stroke-opacity="0.85" stroke-linecap="round"/>
<path d="M 619.9,391.2 L 617.5,445.0 L 590.4,484.2" fill="none" stroke="#3a3630" stroke-width="0.9" stroke-opacity="0.85" stroke-linecap="round"/>
<path d="M 475.6,466.1 L 503.0,552.5" fill="none" stroke="#3a3630" stroke-width="0.9" stroke-opacity="0.85" stroke-linecap="round"/>
<path d="M 503.0,552.5 L 558.7,510.3 L 578.8,513.6" fill="none" stroke="#3a3630" stroke-width="0.9" stroke-opacity="0.85" stroke-linecap="round"/>
<path d="M 578.8,513.6 L 590.4,484.2" fill="none" stroke="#3a3630" stroke-width="0.9" stroke-opacity="0.85" stroke-linecap="round"/>
<path d="M 578.8,513.6 L 580.4,539.1 L 587.2,556.9 L 595.6,577.5" fill="none" stroke="#3a3630" stroke-width="0.9" stroke-opacity="0.85" stroke-linecap="round"/>
<path d="M 595.6,577.5 L 577.6,582.6" fill="none" stroke="#3a3630" stroke-width="0.9" stroke-opacity="0.85" stroke-linecap="round"/>
<path d="M 577.6,582.6 L 537.0,598.7" fill="none" stroke="#3a3630" stroke-width="0.9" stroke-opacity="0.85" stroke-linecap="round"/>
<path d="M 537.0,598.7 L 500.5,611.1" fill="none" stroke="#3a3630" stroke-width="0.9" stroke-opacity="0.85" stroke-linecap="round"/>
<path d="M 497.1,641.6 L 543.1,647.7" fill="none" stroke="#3a3630" stroke-width="0.9" stroke-opacity="0.85" stroke-linecap="round"/>
<path d="M 543.1,647.7 L 537.0,598.7" fill="none" stroke="#3a3630" stroke-width="0.9" stroke-opacity="0.85" stroke-linecap="round"/>
<path d="M 543.1,647.7 L 562.7,650.1 L 600.7,632.1" fill="none" stroke="#3a3630" stroke-width="0.9" stroke-opacity="0.85" stroke-linecap="round"/>
<path d="M 600.7,632.1 L 577.6,582.6" fill="none" stroke="#3a3630" stroke-width="0.9" stroke-opacity="0.85" stroke-linecap="round"/>
<path d="M 458.8,815.8 L 492.3,870.7" fill="none" stroke="#3a3630" stroke-width="0.9" stroke-opacity="0.85" stroke-linecap="round"/>
<path d="M 492.3,870.7 L 634.1,801.1" fill="none" stroke="#3a3630" stroke-width="0.9" stroke-opacity="0.85" stroke-linecap="round"/>
<path d="M 492.3,870.7 L 563.9,939.2 L 687.1,924.5" fill="none" stroke="#3a3630" stroke-width="0.9" stroke-opacity="0.85" stroke-linecap="round"/>
<path d="M 649.2,836.9 L 786.3,806.6" fill="none" stroke="#3a3630" stroke-width="0.9" stroke-opacity="0.85" stroke-linecap="round"/>
<path d="M 786.3,806.6 L 705.6,673.4" fill="none" stroke="#3a3630" stroke-width="0.9" stroke-opacity="0.85" stroke-linecap="round"/>
<path d="M 705.6,673.4 L 639.0,709.9" fill="none" stroke="#3a3630" stroke-width="0.9" stroke-opacity="0.85" stroke-linecap="round"/>
<path d="M 639.0,709.9 L 602.6,735.0" fill="none" stroke="#3a3630" stroke-width="0.9" stroke-opacity="0.85" stroke-linecap="round"/>
<path d="M 639.0,709.9 L 611.6,654.3" fill="none" stroke="#3a3630" stroke-width="0.9" stroke-opacity="0.85" stroke-linecap="round"/>
<path d="M 611.6,654.3 L 582.9,663.0 L 564.9,693.5" fill="none" stroke="#3a3630" stroke-width="0.9" stroke-opacity="0.85" stroke-linecap="round"/>
<path d="M 611.6,654.3 L 683.0,621.9" fill="none" stroke="#3a3630" stroke-width="0.9" stroke-opacity="0.85" stroke-linecap="round"/>
<path d="M 683.0,621.9 L 705.6,673.4" fill="none" stroke="#3a3630" stroke-width="0.9" stroke-opacity="0.85" stroke-linecap="round"/>
<path d="M 611.6,654.3 L 600.7,632.1" fill="none" stroke="#3a3630" stroke-width="0.9" stroke-opacity="0.85" stroke-linecap="round"/>
<path d="M 683.0,621.9 L 654.4,600.2 L 595.6,577.5" fill="none" stroke="#3a3630" stroke-width="0.9" stroke-opacity="0.85" stroke-linecap="round"/>
<path d="M 503.0,552.5 L 463.7,553.6" fill="none" stroke="#3a3630" stroke-width="0.9" stroke-opacity="0.85" stroke-linecap="round"/>
<path d="M 463.7,553.6 L 435.9,552.5" fill="none" stroke="#3a3630" stroke-width="0.9" stroke-opacity="0.85" stroke-linecap="round"/>
<path d="M 498.9,625.6 L 465.5,624.3" fill="none" stroke="#3a3630" stroke-width="0.9" stroke-opacity="0.85" stroke-linecap="round"/>
<path d="M 465.5,624.3 L 463.7,553.6" fill="none" stroke="#3a3630" stroke-width="0.9" stroke-opacity="0.85" stroke-linecap="round"/>
<path d="M 465.5,624.3 L 431.2,623.0" fill="none" stroke="#3a3630" stroke-width="0.9" stroke-opacity="0.85" stroke-linecap="round"/>
<path d="M 679.1,302.3 L 706.0,332.3" fill="none" stroke="#3a3630" stroke-width="0.9" stroke-opacity="0.85" stroke-linecap="round"/>
<path d="M 706.0,332.3 L 728.6,312.1" fill="none" stroke="#3a3630" stroke-width="0.9" stroke-opacity="0.85" stroke-linecap="round"/>
<path d="M 728.6,312.1 L 774.6,266.6" fill="none" stroke="#3a3630" stroke-width="0.9" stroke-opacity="0.85" stroke-linecap="round"/>
<path d="M 774.6,266.6 L 832.0,316.6" fill="none" stroke="#3a3630" stroke-width="0.9" stroke-opacity="0.85" stroke-linecap="round"/>
<path d="M 832.0,316.6 L 894.3,371.3 L 821.1,454.8" fill="none" stroke="#3a3630" stroke-width="0.9" stroke-opacity="0.85" stroke-linecap="round"/>
<path d="M 821.1,454.8 L 805.0,476.3" fill="none" stroke="#3a3630" stroke-width="0.9" stroke-opacity="0.85" stroke-linecap="round"/>
<path d="M 805.0,476.3 L 882.8,536.9 L 859.4,572.7 L 868.3,629.8" fill="none" stroke="#3a3630" stroke-width="0.9" stroke-opacity="0.85" stroke-linecap="round"/>
<path d="M 868.3,629.8 L 818.2,642.1" fill="none" stroke="#3a3630" stroke-width="0.9" stroke-opacity="0.85" stroke-linecap="round"/>
<path d="M 818.2,642.1 L 776.9,661.6 L 755.4,672.9" fill="none" stroke="#3a3630" stroke-width="0.9" stroke-opacity="0.85" stroke-linecap="round"/>
<path d="M 639.4,334.3 L 669.9,360.9" fill="none" stroke="#3a3630" stroke-width="0.9" stroke-opacity="0.85" stroke-linecap="round"/>
<path d="M 669.9,360.9 L 706.0,332.3" fill="none" stroke="#3a3630" stroke-width="0.9" stroke-opacity="0.85" stroke-linecap="round"/>
<path d="M 669.9,360.9 L 666.7,371.8" fill="none" stroke="#3a3630" stroke-width="0.9" stroke-opacity="0.85" stroke-linecap="round"/>
<path d="M 666.7,371.8 L 691.9,379.9 L 715.1,389.4 L 737.9,399.1 L 749.8,406.2" fill="none" stroke="#3a3630" stroke-width="0.9" stroke-opacity="0.85" stroke-linecap="round"/>
<path d="M 749.8,406.2 L 765.2,414.4" fill="none" stroke="#3a3630" stroke-width="0.9" stroke-opacity="0.85" stroke-linecap="round"/>
<path d="M 765.2,414.4 L 821.1,454.8" fill="none" stroke="#3a3630" stroke-width="0.9" stroke-opacity="0.85" stroke-linecap="round"/>
<path d="M 765.2,414.4 L 794.8,368.8" fill="none" stroke="#3a3630" stroke-width="0.9" stroke-opacity="0.85" stroke-linecap="round"/>
<path d="M 794.8,368.8 L 832.0,316.6" fill="none" stroke="#3a3630" stroke-width="0.9" stroke-opacity="0.85" stroke-linecap="round"/>
<path d="M 728.6,312.1 L 794.8,368.8" fill="none" stroke="#3a3630" stroke-width="0.9" stroke-opacity="0.85" stroke-linecap="round"/>
<path d="M 755.4,672.9 L 737.6,646.2 L 720.9,606.4" fill="none" stroke="#3a3630" stroke-width="0.9" stroke-opacity="0.85" stroke-linecap="round"/>
<path d="M 720.9,606.4 L 712.6,592.2 L 691.9,576.0" fill="none" stroke="#3a3630" stroke-width="0.9" stroke-opacity="0.85" stroke-linecap="round"/>
<path d="M 691.9,576.0 L 671.6,563.2 L 651.6,558.0" fill="none" stroke="#3a3630" stroke-width="0.9" stroke-opacity="0.85" stroke-linecap="round"/>
<path d="M 651.6,558.0 L 632.1,552.2 L 618.7,520.2 L 651.2,468.1" fill="none" stroke="#3a3630" stroke-width="0.9" stroke-opacity="0.85" stroke-linecap="round"/>
<path d="M 651.2,468.1 L 656.9,455.0 L 660.0,403.5 L 661.2,386.6 L 666.7,371.8" fill="none" stroke="#3a3630" stroke-width="0.9" stroke-opacity="0.85" stroke-linecap="round"/>
<path d="M 651.2,468.1 L 682.1,485.2" fill="none" stroke="#3a3630" stroke-width="0.9" stroke-opacity="0.85" stroke-linecap="round"/>
<path d="M 682.1,485.2 L 699.4,492.8" fill="none" stroke="#3a3630" stroke-width="0.9" stroke-opacity="0.85" stroke-linecap="round"/>
<path d="M 699.4,492.8 L 729.4,512.7" fill="none" stroke="#3a3630" stroke-width="0.9" stroke-opacity="0.85" stroke-linecap="round"/>
<path d="M 729.4,512.7 L 757.6,528.2 L 765.7,520.1" fill="none" stroke="#3a3630" stroke-width="0.9" stroke-opacity="0.85" stroke-linecap="round"/>
<path d="M 765.7,520.1 L 805.0,476.3" fill="none" stroke="#3a3630" stroke-width="0.9" stroke-opacity="0.85" stroke-linecap="round"/>
<path d="M 749.8,406.2 L 699.4,492.8" fill="none" stroke="#3a3630" stroke-width="0.9" stroke-opacity="0.85" stroke-linecap="round"/>
<path d="M 682.1,485.2 L 651.6,558.0" fill="none" stroke="#3a3630" stroke-width="0.9" stroke-opacity="0.85" stroke-linecap="round"/>
<path d="M 729.4,512.7 L 691.9,576.0" fill="none" stroke="#3a3630" stroke-width="0.9" stroke-opacity="0.85" stroke-linecap="round"/>
<path d="M 720.9,606.4 L 817.2,565.8 L 765.7,520.1" fill="none" stroke="#3a3630" stroke-width="0.9" stroke-opacity="0.85" stroke-linecap="round"/>
<path d="M 683.0,621.9 L 720.9,606.4" fill="none" stroke="#3a3630" stroke-width="0.9" stroke-opacity="0.85" stroke-linecap="round"/>
<path d="M 786.3,806.6 L 814.8,785.0" fill="none" stroke="#3a3630" stroke-width="0.9" stroke-opacity="0.85" stroke-linecap="round"/>
<path d="M 814.8,785.0 L 782.5,729.7 L 755.4,672.9" fill="none" stroke="#3a3630" stroke-width="0.9" stroke-opacity="0.85" stroke-linecap="round"/>
<path d="M 774.6,266.6 L 743.5,242.1" fill="none" stroke="#3a3630" stroke-width="0.9" stroke-opacity="0.85" stroke-linecap="round"/>
<path d="M 814.8,785.0 L 841.0,773.9 L 877.7,765.9" fill="none" stroke="#3a3630" stroke-width="0.9" stroke-opacity="0.85" stroke-linecap="round"/>
<path d="M 877.7,765.9 L 818.2,642.1" fill="none" stroke="#3a3630" stroke-width="0.9" stroke-opacity="0.85" stroke-linecap="round"/>
<path d="M 877.7,765.9 L 902.4,762.4 L 928.9,757.3 L 868.3,629.8" fill="none" stroke="#3a3630" stroke-width="0.9" stroke-opacity="0.85" stroke-linecap="round"/>
<path d="M 743.5,242.1 L 790.8,196.5 L 827.1,133.1 L 846.7,77.3 L 851.2,31.3 L 851.2,31.3" fill="none" stroke="#3a3630" stroke-width="0.9" stroke-opacity="0.85" stroke-linecap="round"/>
<path d="M 774.6,266.6 L 823.5,216.2 L 862.5,145.7 L 883.9,82.8 L 889.0,30.0 L 889.0,30.0" fill="none" stroke="#3a3630" stroke-width="0.9" stroke-opacity="0.85" stroke-linecap="round"/>
<path d="M 786.3,806.6 L 929.2,1040.1" fill="none" stroke="#3a3630" stroke-width="0.9" stroke-opacity="0.85" stroke-linecap="round"/>
<path d="M 814.8,785.0 L 930.0,980.6" fill="none" stroke="#3a3630" stroke-width="0.9" stroke-opacity="0.85" stroke-linecap="round"/>
<text x="152.1" y="797.6" font-family="monospace" font-size="7" fill="#1c1a16" text-anchor="middle" opacity="0.75">1</text>
<text x="504.6" y="967.4" font-family="monospace" font-size="7" fill="#1c1a16" text-anchor="middle" opacity="0.75">2</text>
<text x="786.3" y="949.5" font-family="monospace" font-size="7" fill="#1c1a16" text-anchor="middle" opacity="0.75">3</text>
<text x="863.5" y="901.5" font-family="monospace" font-size="7" fill="#1c1a16" text-anchor="middle" opacity="0.75">4</text>
<text x="890.6" y="839.4" font-family="monospace" font-size="7" fill="#1c1a16" text-anchor="middle" opacity="0.75">5</text>
<text x="885.4" y="359.8" font-family="monospace" font-size="7" fill="#1c1a16" text-anchor="middle" opacity="0.75">6</text>
<text x="829.8" y="150.6" font-family="monospace" font-size="7" fill="#1c1a16" text-anchor="middle" opacity="0.75">7</text>
<text x="742.6" y="119.1" font-family="monospace" font-size="7" fill="#1c1a16" text-anchor="middle" opacity="0.75">8</text>
<text x="278.0" y="169.7" font-family="monospace" font-size="7" fill="#1c1a16" text-anchor="middle" opacity="0.75">9</text>
<text x="621.7" y="224.6" font-family="monospace" font-size="7" fill="#1c1a16" text-anchor="middle" opacity="0.75">10</text>
<text x="538.7" y="238.9" font-family="monospace" font-size="7" fill="#1c1a16" text-anchor="middle" opacity="0.75">11</text>
<text x="592.8" y="317.2" font-family="monospace" font-size="7" fill="#1c1a16" text-anchor="middle" opacity="0.75">12</text>
<text x="507.3" y="400.6" font-family="monospace" font-size="7" fill="#1c1a16" text-anchor="middle" opacity="0.75">13</text>
<text x="564.0" y="361.1" font-family="monospace" font-size="7" fill="#1c1a16" text-anchor="middle" opacity="0.75">14</text>
<text x="572.8" y="429.3" font-family="monospace" font-size="7" fill="#1c1a16" text-anchor="middle" opacity="0.75">15</text>
<text x="499.2" y="489.1" font-family="monospace" font-size="7" fill="#1c1a16" text-anchor="middle" opacity="0.75">16</text>
<text x="540.5" y="496.0" font-family="monospace" font-size="7" fill="#1c1a16" text-anchor="middle" opacity="0.75">17</text>
<text x="483.1" y="588.1" font-family="monospace" font-size="7" fill="#1c1a16" text-anchor="middle" opacity="0.75">18</text>
<text x="544.8" y="561.3" font-family="monospace" font-size="7" fill="#1c1a16" text-anchor="middle" opacity="0.75">19</text>
<text x="521.1" y="625.7" font-family="monospace" font-size="7" fill="#1c1a16" text-anchor="middle" opacity="0.75">20</text>
<text x="464.4" y="641.2" font-family="monospace" font-size="7" fill="#1c1a16" text-anchor="middle" opacity="0.75">21</text>
<text x="551.8" y="660.0" font-family="monospace" font-size="7" fill="#1c1a16" text-anchor="middle" opacity="0.75">22</text>
<text x="440.7" y="713.5" font-family="monospace" font-size="7" fill="#1c1a16" text-anchor="middle" opacity="0.75">23</text>
<text x="514.6" y="713.0" font-family="monospace" font-size="7" fill="#1c1a16" text-anchor="middle" opacity="0.75">24</text>
<text x="480.8" y="773.3" font-family="monospace" font-size="7" fill="#1c1a16" text-anchor="middle" opacity="0.75">25</text>
<text x="304.0" y="732.9" font-family="monospace" font-size="7" fill="#1c1a16" text-anchor="middle" opacity="0.75">26</text>
<text x="347.4" y="805.8" font-family="monospace" font-size="7" fill="#1c1a16" text-anchor="middle" opacity="0.75">27</text>
<text x="556.6" y="717.7" font-family="monospace" font-size="7" fill="#1c1a16" text-anchor="middle" opacity="0.75">28</text>
<text x="602.0" y="694.2" font-family="monospace" font-size="7" fill="#1c1a16" text-anchor="middle" opacity="0.75">29</text>
<text x="549.4" y="799.2" font-family="monospace" font-size="7" fill="#1c1a16" text-anchor="middle" opacity="0.75">30</text>
<text x="690.3" y="762.3" font-family="monospace" font-size="7" fill="#1c1a16" text-anchor="middle" opacity="0.75">31</text>
<text x="597.2" y="879.7" font-family="monospace" font-size="7" fill="#1c1a16" text-anchor="middle" opacity="0.75">32</text>
<text x="357.3" y="647.8" font-family="monospace" font-size="7" fill="#1c1a16" text-anchor="middle" opacity="0.75">33</text>
<text x="412.6" y="605.6" font-family="monospace" font-size="7" fill="#1c1a16" text-anchor="middle" opacity="0.75">34</text>
<text x="239.6" y="617.4" font-family="monospace" font-size="7" fill="#1c1a16" text-anchor="middle" opacity="0.75">35</text>
<text x="354.5" y="541.5" font-family="monospace" font-size="7" fill="#1c1a16" text-anchor="middle" opacity="0.75">36</text>
<text x="447.1" y="588.2" font-family="monospace" font-size="7" fill="#1c1a16" text-anchor="middle" opacity="0.75">37</text>
<text x="406.1" y="497.2" font-family="monospace" font-size="7" fill="#1c1a16" text-anchor="middle" opacity="0.75">38</text>
<text x="211.7" y="536.5" font-family="monospace" font-size="7" fill="#1c1a16" text-anchor="middle" opacity="0.75">39</text>
<text x="252.6" y="478.1" font-family="monospace" font-size="7" fill="#1c1a16" text-anchor="middle" opacity="0.75">40</text>
<text x="293.1" y="449.1" font-family="monospace" font-size="7" fill="#1c1a16" text-anchor="middle" opacity="0.75">41</text>
<text x="268.5" y="359.8" font-family="monospace" font-size="7" fill="#1c1a16" text-anchor="middle" opacity="0.75">42</text>
<text x="341.5" y="429.9" font-family="monospace" font-size="7" fill="#1c1a16" text-anchor="middle" opacity="0.75">43</text>
<text x="420.0" y="396.1" font-family="monospace" font-size="7" fill="#1c1a16" text-anchor="middle" opacity="0.75">44</text>
<text x="435.6" y="475.7" font-family="monospace" font-size="7" fill="#1c1a16" text-anchor="middle" opacity="0.75">45</text>
<text x="410.7" y="332.5" font-family="monospace" font-size="7" fill="#1c1a16" text-anchor="middle" opacity="0.75">46</text>
<text x="396.4" y="282.4" font-family="monospace" font-size="7" fill="#1c1a16" text-anchor="middle" opacity="0.75">47</text>
<text x="320.0" y="235.3" font-family="monospace" font-size="7" fill="#1c1a16" text-anchor="middle" opacity="0.75">48</text>
<text x="482.9" y="345.4" font-family="monospace" font-size="7" fill="#1c1a16" text-anchor="middle" opacity="0.75">49</text>
<text x="672.3" y="264.6" font-family="monospace" font-size="7" fill="#1c1a16" text-anchor="middle" opacity="0.75">50</text>
<text x="726.0" y="286.5" font-family="monospace" font-size="7" fill="#1c1a16" text-anchor="middle" opacity="0.75">51</text>
<text x="673.4" y="332.2" font-family="monospace" font-size="7" fill="#1c1a16" text-anchor="middle" opacity="0.75">52</text>
<text x="606.4" y="368.1" font-family="monospace" font-size="7" fill="#1c1a16" text-anchor="middle" opacity="0.75">53</text>
<text x="636.1" y="496.8" font-family="monospace" font-size="7" fill="#1c1a16" text-anchor="middle" opacity="0.75">54</text>
<text x="624.7" y="614.3" font-family="monospace" font-size="7" fill="#1c1a16" text-anchor="middle" opacity="0.75">55</text>
<text x="565.7" y="618.5" font-family="monospace" font-size="7" fill="#1c1a16" text-anchor="middle" opacity="0.75">56</text>
<text x="747.6" y="703.3" font-family="monospace" font-size="7" fill="#1c1a16" text-anchor="middle" opacity="0.75">57</text>
<text x="659.2" y="664.9" font-family="monospace" font-size="7" fill="#1c1a16" text-anchor="middle" opacity="0.75">58</text>
<text x="734.5" y="364.3" font-family="monospace" font-size="7" fill="#1c1a16" text-anchor="middle" opacity="0.75">59</text>
<text x="782.0" y="316.6" font-family="monospace" font-size="7" fill="#1c1a16" text-anchor="middle" opacity="0.75">60</text>
<text x="828.7" y="387.5" font-family="monospace" font-size="7" fill="#1c1a16" text-anchor="middle" opacity="0.75">61</text>
<text x="758.4" y="468.8" font-family="monospace" font-size="7" fill="#1c1a16" text-anchor="middle" opacity="0.75">62</text>
<text x="807.4" y="581.7" font-family="monospace" font-size="7" fill="#1c1a16" text-anchor="middle" opacity="0.75">63</text>
<text x="873.4" y="698.7" font-family="monospace" font-size="7" fill="#1c1a16" text-anchor="middle" opacity="0.75">64</text>
<text x="815.6" y="715.0" font-family="monospace" font-size="7" fill="#1c1a16" text-anchor="middle" opacity="0.75">65</text>
<text x="693.9" y="429.8" font-family="monospace" font-size="7" fill="#1c1a16" text-anchor="middle" opacity="0.75">66</text>
<text x="748.1" y="560.3" font-family="monospace" font-size="7" fill="#1c1a16" text-anchor="middle" opacity="0.75">67</text>
<text x="689.7" y="530.3" font-family="monospace" font-size="7" fill="#1c1a16" text-anchor="middle" opacity="0.75">68</text>
<text x="649.3" y="512.5" font-family="monospace" font-size="7" fill="#1c1a16" text-anchor="middle" opacity="0.75">69</text>
<circle cx="688.2" cy="31.4" r="5" fill="none" stroke="#e2483d" stroke-width="2"/>
<circle cx="359.4" cy="1068.2" r="5" fill="none" stroke="#e2483d" stroke-width="2"/>
<circle cx="746.8" cy="1068.2" r="5" fill="none" stroke="#e2483d" stroke-width="2"/>
<circle cx="30.2" cy="390.7" r="5" fill="none" stroke="#e2483d" stroke-width="2"/>
<circle cx="851.0" cy="31.4" r="5" fill="none" stroke="#e2483d" stroke-width="2"/>
<circle cx="889.1" cy="29.9" r="5" fill="none" stroke="#e2483d" stroke-width="2"/>
<circle cx="929.2" cy="1040.1" r="5" fill="none" stroke="#e2483d" stroke-width="2"/>
<circle cx="930.2" cy="980.5" r="5" fill="none" stroke="#e2483d" stroke-width="2"/>
<g stroke="#1c1a16" stroke-width="1.5">
<line x1="30.0" y1="1086.0" x2="130.2" y2="1086.0"/>
</g>
<text x="136.2" y="1090.0" font-family="sans-serif" font-size="10" fill="#1c1a16">100 m</text>
<text x="30.0" y="16.0" font-family="sans-serif" font-size="11" fill="#1c1a16">Vallmar2 &#8212; 69 ilots, 178 troncons &#8212; rouge = boulevard, rouge vif = ilot &lt; 200 m&#178;</text>
</g></svg>